<svg width="156" height="40" viewBox="0 0 156 40" fill="none" xmlns="http://www.w3.org/2000/svg">
<g clip-path="url(#clip0_35_31)">
<path d="M3.01758 34L0.84375 32.8105L0.679688 31.8262L0.925781 31.498H3.83789L4.08398 31.293H7.24219L7.48828 31.0469H10.3184L12.4102 30.4727H16.1016L16.3477 30.2676H18.9316C20.3535 29.5293 21.7891 29.2422 23.2383 29.4062L24.0176 29.8984V30.3086L23.3203 31.7441L20.9004 32.6465H17.373L17.127 32.9746H12.7793L11.5078 33.4668H8.71875L8.51367 33.7129H4.69922L3.01758 34ZM4.28906 24.5664L2.68945 23.0898V22.2285L3.05859 21.8594H5.51953L10.5645 21.1621H14.2969L14.625 20.793H17.9883L18.8496 21.2441L19.0137 22.6797C17.9746 23.3906 16.7031 23.7461 15.1992 23.7461L13.0664 23.5L7.07812 24.5664H4.28906ZM3.38672 15.625L1.58203 14.9688L0.925781 12.918C1.28125 12.4531 1.78711 12.2754 2.44336 12.3848L2.8125 12.7129H5.60156L5.88867 12.959H11.3027L13.6406 13.2051L19.3008 12.4258L20.6133 13.5742V14.0254C19.8477 14.9551 18.8223 15.4199 17.5371 15.4199H13.8457L12.2051 15.625L11.959 15.4199H4.125L3.38672 15.625ZM67.248 38.4297L65.7715 37.1582V35.5586L66.5098 33.1797V29.6113L66.7969 29.3242V21.6953L61.752 21.1621L59.7832 21.9824L59.4141 22.3926V26.002H60.8496L63.3105 25.5098L64.0898 25.8789L64.2539 26.9863C62.668 27.9434 60.9863 28.9004 59.209 29.8574L58.1836 34.7793L56.748 34.9023C55.7363 34.3828 55.3262 33.5352 55.5176 32.3594L55.8047 30.5137L51.6621 30.1855L50.1855 31.375V37.2402L49.7754 38.0605L48.5449 38.2246L47.0684 36.9531V32.8926L48.832 20.752V17.8398L48.5449 17.5117V14.9277L56.748 13.4512L57.2812 10.0469C56.4062 9.39062 55.5039 9.17187 54.5742 9.39062L49.3652 10.1289L47.5195 8.32422V7.83203L48.1758 6.92969H53.918L55.1074 6.72461L56.8711 6.9707C57.8008 5.08398 58.3477 3.25195 58.5117 1.47461L59.4551 1.10547L61.2188 2.45898V5.04297L60.8496 6.72461H63.3516L65.8125 6.4375L67.084 7.58594V8.32422C66.373 9.03516 65.4297 9.39062 64.2539 9.39062L64.0078 9.10352H60.8496C60.0293 10.1426 59.7422 11.3867 59.9883 12.8359L62.4082 13.5332L62.6953 13.2051H65.6895L67.8633 12.918L69.709 14.5586V15.4609L69.4219 15.748V20.0547L69.9961 22.3516V30.2266L69.4219 32.8105V35.1895L68.4785 37.8965L67.248 38.4297ZM37.7988 35.1484L36.1992 33.7129V33.0566C38.9883 31.5801 41.7227 30.2129 44.4023 28.9551L44.9766 30.4316L39.5625 35.1484H37.7988ZM55.8457 27.1914L56.4609 26.6172V23.541L54.4102 22.9258L51.293 23.5L50.8828 24.6074V27.3145L51.416 27.8066H54.6973L55.8457 27.1914ZM36.4453 25.5508C35.3789 24.9492 34.8047 24.1836 34.7227 23.2539C35.543 22.6797 36.5137 22.3926 37.6348 22.3926H40.6699L40.875 22.1465H43.1309L44.4434 23.9922C43.9238 24.5391 43.1992 24.8809 42.2695 25.0176H39.6445L36.4453 25.5508ZM56.4609 19.7266V19.0703L56.8301 17.0195L55.3535 16.2402L51.7441 18.0039L51.416 20.2598L53.4258 20.793L56.4609 19.7266ZM66.3047 18.6191L66.5098 16.8555L65.6074 15.584H60.7266L59.6602 15.9121L59.4141 18.332L60.1113 19.1113H65.8125L66.3047 18.6191ZM44.5664 15.7891L37.4297 12.8359L36.6504 10.7031L38.127 10.334C40.6152 11.3184 43.0078 12.5625 45.3047 14.0664L45.5098 15.1738L44.5664 15.7891ZM72.5801 8.40625L66.5098 2.86914L66.3457 1.51562L67.9043 1.10547L74.0566 6.76562V7.79102C73.6738 8.2832 73.1816 8.48828 72.5801 8.40625ZM90.1348 39.0039L88.6582 37.5684L88.7402 37.4863V32.8516L88.4531 32.6055V29.4473L88.2891 28.791L89.5605 28.2168L90.5449 28.4629C93.8535 26.959 97.3262 25.9473 100.963 25.4277H104.367L106.131 26.3301L106.787 27.8066V32.1953L105.146 37.4043L104.285 37.7324C103.328 37.1035 102.111 36.6934 100.635 36.502C99.0762 36.9941 97.5449 37.2402 96.041 37.2402L95.7539 37.0352H92.7598L91.9395 38.5938L90.1348 39.0039ZM102.85 34.2461L103.998 28.2578L102.275 27.1504L91.8164 30.6367L91.5293 33.8359L93.6621 34.9844H98.666L102.85 34.2461ZM90.709 22.6387C89.8887 22.6387 89.2324 22.2148 88.7402 21.3672L88.5352 20.6699L89.7246 20.1367L90.5039 20.3418L95.0566 18.9473L95.3438 15.9941L94.7285 13.2461L92.8418 13L86.0332 14.6816L84.3926 13.2461V12.5898C87.5371 11.6602 90.9961 10.9219 94.7695 10.375L95.0977 7.87305L94.6465 4.42773L96.041 4.05859L97.6406 4.87891L97.8457 6.35547L97.5996 8.48828L98.584 9.88281H100.471L105.721 8.85742L107.361 9.71875L107.525 10.5391C104.709 11.3047 101.619 11.9609 98.2559 12.5078L97.5996 14.9688L98.4199 18.168L99.6094 18.6191L103.137 18.0449L104.572 18.7012L104.9 19.8086L103.588 20.3418H101.086L90.709 22.6387ZM126.146 38.9629L124.588 38.3887L123.932 36.2559C125.107 31.9082 126.529 27.2734 128.197 22.3516C126.721 22.3516 125.641 21.9414 124.957 21.1211L124.834 20.4238C128.525 19.5215 132.518 18.6328 136.811 17.7578V15.502L136.277 12.8359L137.795 11.8105V9.10352L135.17 8.77539L132.996 9.43164V10.6211L133.447 13.1641C133.174 13.5469 132.791 13.6973 132.299 13.6152L129.92 10.7852H127.008L125.982 9.0625L129.879 7.66797L130.494 4.5918V1.26953C131.068 0.914063 131.752 0.832031 132.545 1.02344L133.488 1.7207V2.45898L132.955 6.39648L135.252 7.05273L138.41 6.4375L139.436 0.695312L141.117 0.53125L142.02 1.26953V2.95117L141.322 5.16602L146.408 6.19141L146.695 7.17578L146.244 7.79102C144.33 7.59961 142.525 7.98242 140.83 8.93945C140.092 11.4824 139.641 14.1621 139.477 16.9785L140.994 17.3477L144.891 16.6094L145.998 17.5938V18.0859C144.904 18.9062 143.359 19.3164 141.363 19.3164L140.707 20.834L142.963 25.3047H144.234L147.064 21.8184H148.172C148.91 22.0918 149.279 22.5293 149.279 23.1309C147.639 24.7715 146.422 26.8086 145.629 29.2422C147.871 31.4023 149.922 33.3164 151.781 34.9844V35.8457L151.289 36.4609H150.674C148.951 35.2305 147.229 33.7129 145.506 31.9082V31.1289H143.496L138.779 37.0762L137.631 37.2402L136.77 36.502L136.523 35.1074L142.143 27.6016L137.836 20.3828L136.318 20.0547L131.848 21.4492C130.262 26.0977 128.703 30.6777 127.172 35.1895V38.2656L126.146 38.9629ZM154.57 19.1934L152.314 17.9629C150.92 16.7051 150.1 15.3516 149.854 13.9023L151.248 13.3691L152.725 14.4355C154.119 15.6934 154.898 17.1699 155.062 18.8652L154.57 19.1934Z" fill="black"/>
</g>
<defs>
<clipPath id="clip0_35_31">
<rect width="156" height="40" fill="white"/>
</clipPath>
</defs>
</svg>
