<svg width="49" height="49" viewBox="0 0 49 49" fill="none" xmlns="http://www.w3.org/2000/svg">
<g clip-path="url(#clip0_36_79)">
<path d="M49 21.8851C49.0004 18.3397 47.5591 15.1184 45.2351 12.7968C43.0097 10.5688 39.9573 9.15627 36.5859 9.04267C35.9376 7.25474 34.9052 5.6498 33.5883 4.33493C31.2662 2.01078 28.0452 0.569207 24.5 0.570069C20.9547 0.569207 17.7333 2.01088 15.4113 4.33493C14.0948 5.6498 13.0619 7.25474 12.414 9.04267C9.0427 9.15617 5.99035 10.5688 3.76487 12.7968C1.44033 15.1184 -0.000860942 18.3397 3.85863e-07 21.8851C-0.000860942 25.4304 1.44033 28.6518 3.76487 30.9733C4.13725 31.3462 4.53547 31.6942 4.95178 32.019C4.62658 33.1499 4.44838 34.343 4.44886 35.5766C4.44799 39.122 5.88928 42.3425 8.21334 44.6649C10.5358 46.989 13.7563 48.4306 17.3021 48.4298C19.9655 48.4306 22.4461 47.617 24.5001 46.2268C26.5541 47.617 29.0343 48.4306 31.6981 48.4298C35.2434 48.4306 38.4644 46.989 40.7869 44.6649C43.1109 42.3425 44.5517 39.122 44.5513 35.5766C44.5517 34.3429 44.3736 33.1499 44.048 32.019C44.4647 31.6941 44.8625 31.3462 45.2353 30.9733C47.5591 28.6518 49.0004 25.4304 49 21.8851ZM34.904 13.4232C34.9031 16.2998 33.7416 18.8932 31.8566 20.7807C30.2836 22.3515 28.2184 23.4171 25.9086 23.7302C25.8017 23.1312 25.7429 22.5156 25.7424 21.8851C25.7429 19.0084 26.9053 16.4151 28.7898 14.5285C30.3628 12.9567 32.4275 11.8912 34.7378 11.5789C34.8447 12.177 34.904 12.7926 34.904 13.4232ZM39.0545 28.2193C39.8752 29.0413 40.5588 29.9973 41.0691 31.0521C39.6043 31.8409 37.9301 32.2882 36.1463 32.2891C33.2696 32.2882 30.6762 31.1266 28.7897 29.2417C27.969 28.4198 27.2854 27.4645 26.7751 26.4097C28.2399 25.6202 29.914 25.1728 31.6978 25.1728C34.5747 25.1736 37.168 26.3352 39.0545 28.2193ZM17.1433 6.06659C19.03 4.18162 21.6229 3.02007 24.5 3.01921C27.3766 3.02007 29.97 4.18162 31.8566 6.06659C32.7572 6.96801 33.4905 8.03271 34.0134 9.21168C31.3197 9.66158 28.9042 10.9492 27.0578 12.7968C26.0063 13.8466 25.1381 15.0828 24.5 16.4482C23.8617 15.0827 22.9932 13.8466 21.9419 12.7968C20.0955 10.9492 17.6802 9.66158 14.9862 9.21168C15.5091 8.03271 16.2424 6.96801 17.1433 6.06659ZM14.2621 11.5789C16.572 11.8912 18.6372 12.9567 20.2098 14.5285C22.0948 16.4152 23.2568 19.0084 23.2572 21.8851C23.2572 22.5156 23.1982 23.1312 23.0911 23.7302C20.7811 23.4171 18.7159 22.3515 17.1429 20.7807C15.2583 18.8932 14.0964 16.2998 14.0959 13.4232C14.0959 12.7926 14.1549 12.177 14.2621 11.5789ZM22.2248 26.4097C21.7144 27.4645 21.031 28.4199 20.2098 29.2417C18.3232 31.1266 15.7299 32.2882 12.8532 32.2891C11.0693 32.2882 9.39527 31.8408 7.93044 31.0521C8.44082 29.9972 9.12443 29.0412 9.94499 28.2193C11.8317 26.3352 14.4249 25.1736 17.3021 25.1728C19.0855 25.1728 20.7599 25.6202 22.2248 26.4097ZM5.49652 29.2417C3.61155 27.3551 2.45 24.7617 2.44914 21.8851C2.45 19.0084 3.61155 16.4151 5.49652 14.5285C7.14654 12.8797 9.33766 11.7844 11.786 11.535C11.6948 12.1523 11.6464 12.7819 11.6468 13.4232C11.6459 16.9694 13.0872 20.1899 15.4113 22.5123C15.5169 22.6175 15.6262 22.7194 15.7361 22.8213C12.8143 23.1776 10.1882 24.5115 8.21334 26.4876C7.29449 27.4057 6.51652 28.4662 5.90833 29.6296C5.76784 29.5035 5.62993 29.3751 5.49652 29.2417ZM17.302 45.9807C14.4249 45.9799 11.8316 44.8183 9.9449 42.9333C8.0605 41.0467 6.89838 38.4534 6.8979 35.5767C6.8979 34.8269 6.97877 34.097 7.12912 33.3927C8.85417 34.2527 10.7984 34.7391 12.8531 34.7382C15.11 34.7391 17.2344 34.1525 19.0804 33.1292C18.9272 33.9221 18.8443 34.7399 18.8447 35.5767C18.8443 39.0774 20.2503 42.2598 22.5227 44.5747C20.9886 45.4678 19.2081 45.9799 17.302 45.9807ZM24.5 43.0843C24.447 43.0337 24.3928 42.9848 24.3409 42.9334C22.4565 41.0468 21.2944 38.4535 21.2939 35.5768C21.2943 32.7002 22.4564 30.1068 24.3409 28.2194C24.3928 28.1681 24.447 28.1192 24.5 28.0686C24.5526 28.1192 24.6069 28.1681 24.6587 28.2194C26.5433 30.1069 27.7053 32.7002 27.7057 35.5768C27.7054 38.4535 26.5433 41.0468 24.6587 42.9334C24.6068 42.9847 24.5525 43.0336 24.5 43.0843ZM39.0545 42.9333C37.1679 44.8183 34.5746 45.9799 31.6979 45.9807C29.7914 45.9799 28.0113 45.4678 26.4768 44.5747C28.7491 42.2598 30.1556 39.0774 30.1551 35.5767C30.1551 34.7399 30.0723 33.9221 29.9195 33.1292C31.765 34.1533 33.8894 34.7391 36.1464 34.7382C38.2011 34.7391 40.1454 34.2518 41.8704 33.3927C42.0208 34.097 42.1015 34.8269 42.1019 35.5767C42.1011 38.4534 40.9391 41.0467 39.0545 42.9333ZM43.5035 29.2417C43.3696 29.3751 43.2317 29.5035 43.0917 29.6295C42.4831 28.4662 41.7055 27.4056 40.7867 26.4875C38.8118 24.5114 36.1858 23.1775 33.2634 22.8212C33.3732 22.7193 33.4826 22.6174 33.5883 22.5122C35.9128 20.1898 37.354 16.9693 37.3531 13.4231C37.3531 12.7818 37.3047 12.1521 37.214 11.5349C39.6622 11.7843 41.8529 12.8796 43.5035 14.5284C45.388 16.4151 46.55 19.0083 46.5509 21.885C46.55 24.7617 45.388 27.3551 43.5035 29.2417Z" fill="white"/>
</g>
<defs>
<clipPath id="clip0_36_79">
<rect width="49" height="49" fill="white"/>
</clipPath>
</defs>
</svg>
