<svg width="42" height="51" viewBox="0 0 42 51" fill="none" xmlns="http://www.w3.org/2000/svg">
<mask id="mask0_20_10" style="mask-type:luminance" maskUnits="userSpaceOnUse" x="0" y="0" width="42" height="42">
<path d="M42 0H0V42H42V0Z" fill="white"/>
</mask>
<g mask="url(#mask0_20_10)">
<path d="M42 18.27C42.0003 15.2311 40.7649 12.47 38.773 10.4801C36.8654 8.57038 34.2491 7.3596 31.3593 7.26223C30.8036 5.72972 29.9188 4.35405 28.7899 3.22703C26.7996 1.2349 24.0388 -0.00073795 21 3.30651e-07C17.9612 -0.00073795 15.2 1.23498 13.2097 3.22703C12.0812 4.35405 11.196 5.72972 10.6406 7.26223C7.75089 7.35951 5.13458 8.57038 3.22703 10.4801C1.23457 12.47 -0.00073795 15.2311 3.3074e-07 18.27C-0.00073795 21.3088 1.23457 24.07 3.22703 26.0599C3.54621 26.3795 3.88754 26.6778 4.24438 26.9562C3.96564 27.9256 3.81289 28.9482 3.81331 30.0056C3.81257 33.0445 5.04796 35.8049 7.04 37.7956C9.03066 39.7876 11.7911 41.0233 14.8303 41.0226C17.1133 41.0233 19.2395 40.3259 21.0001 39.1343C22.7606 40.3259 24.8866 41.0233 27.1698 41.0226C30.2087 41.0233 32.9695 39.7876 34.9602 37.7956C36.9522 35.8049 38.1872 33.0445 38.1869 30.0056C38.1872 28.9482 38.0345 27.9256 37.7555 26.9562C38.1126 26.6777 38.4535 26.3795 38.7731 26.0599C40.7649 24.07 42.0003 21.3088 42 18.27ZM29.9177 11.017C29.917 13.4827 28.9213 15.7055 27.3057 17.3234C25.9574 18.6698 24.1872 19.5832 22.2073 19.8516C22.1157 19.3381 22.0653 18.8104 22.0649 18.27C22.0653 15.8043 23.0617 13.5814 24.677 11.9643C26.0252 10.6171 27.795 9.7038 29.7753 9.43614C29.8669 9.94883 29.9177 10.4765 29.9177 11.017ZM33.4753 23.6993C34.1787 24.4039 34.7647 25.2234 35.2021 26.1274C33.9465 26.8035 32.5115 27.187 30.9825 27.1877C28.5168 27.187 26.2939 26.1913 24.6769 24.5757C23.9734 23.8712 23.3875 23.0523 22.95 22.1483C24.2056 21.4715 25.6406 21.088 27.1696 21.088C29.6354 21.0888 31.8583 22.0844 33.4753 23.6993ZM14.6943 4.7113C16.3114 3.09561 18.5339 2.1 21 2.09926C23.4657 2.1 25.6886 3.09561 27.3057 4.7113C28.0776 5.48395 28.7062 6.39655 29.1543 7.40709C26.8455 7.79272 24.775 8.89637 23.1924 10.4801C22.2911 11.3799 21.5469 12.4395 21 13.6098C20.4529 12.4394 19.7085 11.3799 18.8073 10.4801C17.2247 8.89637 15.1545 7.79272 12.8453 7.40709C13.2935 6.39655 13.922 5.48395 14.6943 4.7113ZM12.2246 9.43614C14.2046 9.7038 15.9748 10.6171 17.3227 11.9643C18.9384 13.5815 19.9344 15.8043 19.9347 18.27C19.9347 18.8104 19.8842 19.3381 19.7923 19.8516C17.8123 19.5832 16.0422 18.6698 14.6939 17.3234C13.0786 15.7055 12.0826 13.4827 12.0822 11.017C12.0822 10.4765 12.1328 9.94883 12.2246 9.43614ZM19.0499 22.1483C18.6123 23.0523 18.0265 23.8713 17.3227 24.5757C15.7056 26.1913 13.4827 27.187 11.017 27.1877C9.48798 27.187 8.05309 26.8035 6.79752 26.1274C7.23499 25.2233 7.82094 24.4038 8.52428 23.6993C10.1414 22.0844 12.3642 21.0888 14.8303 21.088C16.359 21.088 17.7942 21.4715 19.0499 22.1483ZM4.7113 24.5757C3.09561 22.9586 2.1 20.7357 2.09926 18.27C2.1 15.8043 3.09561 13.5814 4.7113 11.9643C6.1256 10.5511 8.00371 9.61226 10.1023 9.39848C10.0241 9.92758 9.98263 10.4673 9.98296 11.017C9.98222 14.0565 11.2176 16.817 13.2097 18.8076C13.3002 18.8978 13.3939 18.9851 13.4881 19.0725C10.9837 19.3779 8.73272 20.5213 7.04 22.215C6.25242 23.002 5.58559 23.911 5.06428 24.9081C4.94386 24.8001 4.82565 24.69 4.7113 24.5757ZM14.8303 38.9234C12.3642 38.9227 10.1414 37.9271 8.5242 36.3114C6.909 34.6943 5.91289 32.4714 5.91248 30.0057C5.91248 29.363 5.9818 28.7373 6.11067 28.1337C7.58929 28.8708 9.25575 29.2877 11.017 29.287C12.9514 29.2877 14.7724 28.7849 16.3547 27.9078C16.2233 28.5875 16.1523 29.2884 16.1526 30.0057C16.1523 33.0063 17.3574 35.734 19.3052 37.7183C17.9902 38.4838 16.4641 38.9227 14.8303 38.9234ZM21 36.4407C20.9546 36.3974 20.9081 36.3555 20.8637 36.3115C19.2484 34.6944 18.2524 32.4715 18.252 30.0058C18.2523 27.5401 19.2483 25.3172 20.8637 23.6994C20.9081 23.6554 20.9546 23.6135 21 23.5702C21.0451 23.6135 21.0916 23.6554 21.136 23.6994C22.7514 25.3173 23.7474 27.5401 23.7477 30.0058C23.7475 32.4715 22.7514 34.6944 21.136 36.3115C21.0915 36.3554 21.045 36.3973 21 36.4407ZM33.4753 36.3114C31.8582 37.9271 29.6353 38.9227 27.1697 38.9234C25.5355 38.9227 24.0097 38.4838 22.6944 37.7183C24.6421 35.734 25.8476 33.0063 25.8472 30.0057C25.8472 29.2884 25.7763 28.5875 25.6453 27.9078C27.2272 28.7856 29.0481 29.2877 30.9826 29.287C32.7438 29.2877 34.4103 28.8701 35.8889 28.1337C36.0178 28.7373 36.087 29.363 36.0874 30.0057C36.0867 32.4714 35.0907 34.6943 33.4753 36.3114ZM37.2887 24.5757C37.1739 24.69 37.0557 24.8001 36.9357 24.908C36.4141 23.911 35.7476 23.0019 34.96 22.215C33.2673 20.5212 31.0164 19.3778 28.5115 19.0724C28.6056 18.9851 28.6994 18.8977 28.7899 18.8075C30.7824 16.8169 32.0177 14.0565 32.017 11.0169C32.017 10.4672 31.9755 9.92742 31.8977 9.3984C33.9962 9.61217 35.8739 10.551 37.2887 11.9643C38.904 13.5814 39.9 15.8042 39.9007 18.2699C39.9 20.7357 38.904 22.9586 37.2887 24.5757Z" fill="#FF8A00"/>
</g>
<path d="M0.599998 49H1.158V47.134H1.95L3.018 49H3.648L2.52 47.074C3.12 46.93 3.516 46.522 3.516 45.838C3.516 44.92 2.874 44.596 1.98 44.596H0.599998V49ZM1.158 46.684V45.052H1.896C2.586 45.052 2.964 45.256 2.964 45.838C2.964 46.408 2.586 46.684 1.896 46.684H1.158ZM4.41445 49H7.01845V48.526H4.97245V46.924H6.64045V46.45H4.97245V45.07H6.95245V44.596H4.41445V49ZM9.6038 49.078C10.1738 49.078 10.6058 48.85 10.9538 48.448L10.6478 48.1C10.3658 48.406 10.0478 48.592 9.6278 48.592C8.7878 48.592 8.2598 47.896 8.2598 46.786C8.2598 45.688 8.8118 45.004 9.6458 45.004C10.0238 45.004 10.3178 45.178 10.5458 45.424L10.8458 45.064C10.5938 44.782 10.1738 44.518 9.6398 44.518C8.5238 44.518 7.6898 45.382 7.6898 46.804C7.6898 48.232 8.5118 49.078 9.6038 49.078ZM11.768 49H12.326V47.134H13.118L14.186 49H14.816L13.688 47.074C14.288 46.93 14.684 46.522 14.684 45.838C14.684 44.92 14.042 44.596 13.148 44.596H11.768V49ZM12.326 46.684V45.052H13.064C13.754 45.052 14.132 45.256 14.132 45.838C14.132 46.408 13.754 46.684 13.064 46.684H12.326ZM17.1424 49.078C18.0424 49.078 18.7264 48.598 18.7264 47.182V44.596H18.1924V47.2C18.1924 48.262 17.7304 48.592 17.1424 48.592C16.5724 48.592 16.1224 48.262 16.1224 47.2V44.596H15.5644V47.182C15.5644 48.598 16.2484 49.078 17.1424 49.078ZM19.9066 49H20.4646V44.596H19.9066V49ZM22.5825 49H23.1405V45.07H24.4725V44.596H21.2505V45.07H22.5825V49ZM25.2563 49H27.8603V48.526H25.8143V46.924H27.4823V46.45H25.8143V45.07H27.7943V44.596H25.2563V49ZM31.3494 49.078C32.2674 49.078 32.8434 48.526 32.8434 47.83C32.8434 47.176 32.4474 46.876 31.9374 46.654L31.3074 46.384C30.9654 46.24 30.5814 46.078 30.5814 45.652C30.5814 45.256 30.9054 45.004 31.4034 45.004C31.8114 45.004 32.1354 45.166 32.4054 45.418L32.6994 45.064C32.3874 44.74 31.9254 44.518 31.4034 44.518C30.6054 44.518 30.0174 45.01 30.0174 45.688C30.0174 46.33 30.5034 46.642 30.9114 46.816L31.5474 47.092C31.9614 47.278 32.2794 47.422 32.2794 47.872C32.2794 48.304 31.9314 48.592 31.3554 48.592C30.8994 48.592 30.4554 48.376 30.1434 48.046L29.8074 48.424C30.1914 48.826 30.7254 49.078 31.3494 49.078ZM33.7055 49H34.2635V44.596H33.7055V49ZM36.3813 49H36.9393V45.07H38.2713V44.596H35.0493V45.07H36.3813V49ZM39.0551 49H41.6591V48.526H39.6131V46.924H41.2811V46.45H39.6131V45.07H41.5931V44.596H39.0551V49Z" fill="#FF8A00"/>
</svg>
