<svg width="137" height="30" viewBox="0 0 137 30" fill="none" xmlns="http://www.w3.org/2000/svg">
<g clip-path="url(#clip0_34_9)">
<path d="M15.6797 29.3594L14.1172 27.9922V25.2188L13.6875 23.0703V11.7031L13.8828 10.7266L13.6875 9.55469H13.2969C11.7344 13.2005 10.3672 16.9245 9.19531 20.7266L8.02344 20.9219C6.46094 17.7708 5.41927 14.4375 4.89844 10.9219H4.3125L4.11719 11.5078V18.1875L3.88281 18.3828V22.6797L4.50781 25.8047L3.6875 28.1875L2.71094 28.3828L1.34375 27.4062L1.14844 27.2109V24.0469L0.953125 23.4609L1.14844 23.2656V17.7969L1.34375 17.6016V13.0703L1.53906 12.875V4.24219L1.73438 3.65625L1.53906 2.28906C2.0599 1.63802 2.77604 1.44271 3.6875 1.70312L6.26562 3.85156L6.65625 4.4375V7.79688L8.02344 14.0469H8.41406C10.237 9.48958 12.2682 4.98438 14.5078 0.531249L15.6797 0.335938L16.8516 1.11719L17.2422 2.48438C16.8516 3.26562 16.6562 4.04688 16.6562 4.82812V7.60156L16.4609 8.1875L16.6562 9.35938L16.4609 10.9219L16.6562 11.8984L16.4609 12.0938V17.4062L16.2656 18.1875L16.4609 18.3828V22.875L16.6562 23.0703V25.6094L17.0469 28.9688L15.6797 29.3594ZM28.6094 29.1641L27.4375 27.7969V19.5547L27.6328 19.3594V14.6328L28.2188 13.8516H29.3906L30.3672 14.4375L30.7578 15.8047L30.3672 16.8203V19.1641L30.1719 19.75L30.3672 20.5312L30.1719 20.7266V24.4375L29.9766 26.4297L30.1719 26.625V28.7734C29.7812 29.1641 29.2604 29.2943 28.6094 29.1641ZM29.9766 9.16406C29.0651 9.03385 28.349 8.57812 27.8281 7.79688L27.0469 5.41406L28.4141 4.82812L29.9766 5.80469L30.3672 7.40625L30.9531 7.60156L31.1484 8.1875C31.0182 8.83854 30.6276 9.16406 29.9766 9.16406ZM48.0234 29.125C46.4349 28.7344 45.0547 27.8099 43.8828 26.3516L43.1016 24.9844L43.4922 24.0078L44.8594 23.8125C45.5104 25.1146 46.4349 26.1042 47.6328 26.7812H48.8047C49.9766 26.3646 50.9531 25.6354 51.7344 24.5938V24.0078C49 21.7943 46.7734 19.3203 45.0547 16.5859L44.8594 14.3984C45.5104 13.0964 46.5 12.25 47.8281 11.8594L51.5391 11.2734C52.9714 11.4036 54.1432 11.9896 55.0547 13.0312L55.25 14.3984L53.8828 14.7891L53.4922 14.0078L51.3438 13.6172L48.2188 14.9844L47.8281 16.3516L49.3906 18.9297L52.9062 21.8594C53.8177 22.901 54.3385 24.0729 54.4688 25.375L53.1016 27.3672C51.6693 28.6693 49.9766 29.2552 48.0234 29.125ZM68.0234 29.125C66.4349 28.7344 65.0547 27.8099 63.8828 26.3516L63.1016 24.9844L63.4922 24.0078L64.8594 23.8125C65.5104 25.1146 66.4349 26.1042 67.6328 26.7812H68.8047C69.9766 26.3646 70.9531 25.6354 71.7344 24.5938V24.0078C69 21.7943 66.7734 19.3203 65.0547 16.5859L64.8594 14.3984C65.5104 13.0964 66.5 12.25 67.8281 11.8594L71.5391 11.2734C72.9714 11.4036 74.1432 11.9896 75.0547 13.0312L75.25 14.3984L73.8828 14.7891L73.4922 14.0078L71.3438 13.6172L68.2188 14.9844L67.8281 16.3516L69.3906 18.9297L72.9062 21.8594C73.8177 22.901 74.3385 24.0729 74.4688 25.375L73.1016 27.3672C71.6693 28.6693 69.9766 29.2552 68.0234 29.125ZM88.6094 29.1641L87.4375 27.7969V19.5547L87.6328 19.3594V14.6328L88.2188 13.8516H89.3906L90.3672 14.4375L90.7578 15.8047L90.3672 16.8203V19.1641L90.1719 19.75L90.3672 20.5312L90.1719 20.7266V24.4375L89.9766 26.4297L90.1719 26.625V28.7734C89.7812 29.1641 89.2604 29.2943 88.6094 29.1641ZM89.9766 9.16406C89.0651 9.03385 88.349 8.57812 87.8281 7.79688L87.0469 5.41406L88.4141 4.82812L89.9766 5.80469L90.3672 7.40625L90.9531 7.60156L91.1484 8.1875C91.0182 8.83854 90.6276 9.16406 89.9766 9.16406ZM107.672 29.3203C106.474 29.1641 105.419 28.6953 104.508 27.9141L103.141 25.5703V20.8438C103.792 17.9531 105.172 15.3229 107.281 12.9531C108.193 12.4323 109.234 12.1719 110.406 12.1719L112.398 13.3438C114.091 15.7135 115.146 18.3438 115.562 21.2344C115.146 23.7344 113.896 25.8307 111.812 27.5234C110.615 28.5651 109.234 29.1641 107.672 29.3203ZM109.234 26.1562C110.823 25.2188 111.943 23.9036 112.594 22.2109L112.789 21.625V19.2422L111.031 14.9062H109.625L107.672 16.8984C107.021 18.0703 106.422 19.3203 105.875 20.6484V22.9922L105.68 24.3594L106.5 26.5469L107.477 26.9375L109.234 26.1562ZM123.609 28.7344L122.438 27.7578L122.242 24.5547L122.438 23.9688L122.242 23.7734V19.2422L121.422 13.8906C122.099 13.2135 122.893 13.0052 123.805 13.2656C124.195 14.0729 124.469 14.9323 124.625 15.8438V18.0312L124.82 18.8125H125.602L126.578 17.4453C127.646 16.5078 128.909 15.9089 130.367 15.6484L132.32 16.4688C133.388 19.4896 134.508 22.4583 135.68 25.375L136.695 26.3516V27.1328H134.508L131.93 24.5547C131.539 22.4453 131.083 20.401 130.562 18.4219L129.742 18.2266C128.023 19.4245 126.773 20.9479 125.992 22.7969L125.406 25.5703V28.1484C125.016 28.7995 124.417 28.9948 123.609 28.7344Z" fill="#FF8A00"/>
</g>
<defs>
<clipPath id="clip0_34_9">
<rect width="137" height="30" fill="white"/>
</clipPath>
</defs>
</svg>
