<svg width="587" height="187" viewBox="0 0 587 187" fill="none" xmlns="http://www.w3.org/2000/svg">
<path d="M25.913 92.3376L24.0528 91.591L23.7711 90.8788L24.0168 89.8344L23.6348 88.4001L23.8579 85.841L22.2256 85.9308C17.1953 88.5521 11.8642 90.4825 6.23233 91.722L4.07378 89.961L4.01061 88.8123L12.2404 86.298L12.0243 82.3684L12.4276 81.9824L12.0319 74.7882L12.392 73.6163L11.9455 73.2164L11.7394 69.4681L12.1324 63.3827L5.17997 63.765L2.85396 61.1642L3.01871 60.8519L3.49238 60.644L10.3843 60.265C22.8841 57.4754 35.2105 54.4731 47.3635 51.2579L49.4988 52.5958L49.522 53.019C43.1037 55.3933 36.3205 57.3833 29.1727 58.9892L28.2368 62.9215L28.9217 75.3753L28.5756 75.6975L28.9546 82.5895C28.4826 85.7686 27.7868 88.9197 26.867 92.0426L25.913 92.3376ZM36.1219 88.3198C35.5084 88.1918 35.2803 87.7193 35.4375 86.9021L36.7183 84.8306L40.1035 79.1264L34.0882 73.3933L34.0251 72.2447L34.2575 70.9585L32.5494 68.5662L40.5712 65.5783L44.1381 65.3821L44.4809 64.9994L48.2896 64.79L49.8986 64.277L52.39 65.4741L52.7016 66.7303C49.9341 70.8038 47.8146 75.2661 46.3431 80.1173L51.5776 82.6794L51.876 83.6938L51.1399 84.6439L48.359 84.7968L43.7456 82.5037L40.6633 87.0998L39.4469 88.1369L36.1219 88.3198ZM23.7195 81.1189C24.75 80.0111 25.0912 78.4966 24.743 76.5753L22.8157 75.7111L16.6314 77.931L16.2414 78.5588L16.5041 83.3348L19.0898 84.0416L23.7195 81.1189ZM42.5103 75.477L45.1707 68.7211L43.5084 68.2668C40.7585 68.9839 38.4628 70.2421 36.6213 72.0412L41.7609 76.1852L42.5103 75.477ZM24.5103 72.3435L24.7467 70.0262C23.5003 68.6798 22.0843 68.2928 20.4988 68.8651L16.1115 70.683L16.2445 73.1012L19.559 73.8285L24.5103 72.3435ZM24.387 64.5885L24.624 61.1797L22.7571 60.3122L17.0398 62.2032L16.4295 66.5421L19.5127 66.3725L24.387 64.5885ZM17.5184 53.263L14.534 50.8197L14.0622 47.7531L14.6674 46.6283L14.2518 39.0714L13.4145 34.8728C14.0305 34.3133 14.8277 34.1078 15.8061 34.2561L19.2143 35.5847C23.3934 33.657 27.7614 32.2242 32.3183 31.2864L35.7039 31.1002L37.5641 31.8468L37.9223 33.9495L36.7213 37.4719L36.9806 42.1874L37.4032 43.2557C37.5229 45.4321 36.9587 47.3025 35.7107 48.8668C32.8953 50.5983 29.807 51.7787 26.4459 52.4083L22.8185 52.6077L22.4758 52.9904L17.5184 53.263ZM32.1955 46.6953L32.4359 43.3469L29.7154 43.4965L19.1338 47.3529L18.6157 48.958L21.2313 50.2089C25.1142 49.5102 28.7689 48.339 32.1955 46.6953ZM31.6484 40.0551C32.6746 38.8668 32.9777 37.3948 32.5577 35.6392L29.9787 35.0533L18.6478 39.6179L18.2971 42.0628L20.6476 42.9037L24.8569 41.1563L28.6051 40.9501L31.6484 40.0551ZM69.8808 90.2228L67.9202 88.7541L67.4814 80.7739L67.8846 80.3879L67.6419 75.9747L68.0418 75.5282L67.7991 71.115L68.1419 70.7323L67.9059 66.4399L68.1356 64.0018L67.921 63.4072L69.2683 62.5448L71.921 63.3691L72.8566 66.0464L79.3858 65.6873L98.471 62.091L105.302 61.7153L108.62 62.503C112.799 68.6604 115.103 75.6285 115.53 83.4071L114.676 85.5158L112.577 85.9344L110.801 84.5161L110.399 77.201L105.881 65.6249L105.123 65.0603L98.7143 65.4127L98.3077 65.7382L93.6527 65.9942L85.3962 68.0249L81.2853 68.251L77.2713 69.1387L72.6767 69.3914L71.9926 73.4918L72.3184 79.4164L71.9185 79.8629L72.4438 89.4149C71.8858 90.2945 71.0315 90.5638 69.8808 90.2228ZM87.325 84.3518L87.0027 84.0057L83.2545 84.2118C81.7459 83.2437 80.8353 82.1215 80.5225 80.8451L81.089 76.8118L80.8497 72.459L81.9684 71.8517L85.9578 72.7238L90.9391 71.7828L91.2613 72.1289L95.7955 71.8796L98.8442 73.2885L99.3944 74.471L99.6304 78.7634C98.8771 80.5027 97.7793 81.8567 96.3368 82.8254L87.325 84.3518ZM94.4512 79.412L94.6683 75.6405C93.041 74.7194 91.3876 74.4263 89.7082 74.7612L85.5461 76.2635L85.3696 79.6689L86.9674 81.1576L91.5016 80.9083L94.4512 79.412ZM81.7599 60.3419L78.852 59.289L78.1643 57.8109L77.6822 49.0448L77.3706 47.7886L78.7949 47.2251L82.4993 47.3246L86.4933 46.0741L94.3526 45.6419L96.7934 47.0236L96.8699 48.4141C95.2995 49.9962 94.2762 51.9727 93.8002 54.3436L96.113 56.7025L95.5483 57.4613L92.8511 58.0341L88.9215 58.2502L81.7599 60.3419ZM88.3858 55.1264C89.9988 53.5824 90.6212 51.6684 90.2531 49.3844L88.1072 48.9566L82.2923 51.2775L82.0619 54.8072L84.6875 56.2394L88.3858 55.1264ZM69.8427 44.3217L67.2443 42.2816L67.1945 41.3748L81.1177 37.6378L81.8202 30.5651L83.9062 29.9047L86.387 32.0118L86.4602 33.3419L86.1361 36.2703L89.1888 36.6482L97.7741 35.0846L100.017 36.174L100.315 37.1884C99.2378 38.1775 97.9209 38.8563 96.3646 39.2249L89.2913 39.6138L69.8427 44.3217ZM141.334 83.9891C138.071 81.2579 136.125 77.8479 135.496 73.7591L134.864 62.2725L135.15 61.9536L134.894 57.2986L135.382 55.1494L135.159 51.0989C135.972 50.4478 136.888 50.1953 137.907 50.3414L140.186 52.0958L140.323 54.5745L139.333 58.631L139.502 61.7143L139.156 62.0365L139.549 69.1702L139.316 70.4564L139.635 70.7421L139.821 74.1276L141.011 78.1249L142.22 78.0584L144.38 77.6365L145.403 79.7025C144.655 80.7948 144.22 82.0719 144.098 83.5339L141.334 83.9891ZM159.531 70.8607C157.677 70.9627 155.997 70.5497 154.491 69.6219L153.75 67.1765C154.52 66.4873 155.536 66.2091 156.796 66.3419L161.79 66.7343C163.454 66.845 164.804 66.7707 165.841 66.5116L166.731 66.1594L170.848 67.1458L171.27 69.3056L169.143 70.3321L162.917 70.6745L161.691 70.4387L159.531 70.8607ZM151.716 58.8596L149.802 57.1457L149.716 55.5739C154.963 53.2236 160.541 51.3605 166.448 49.9846L168.375 50.8488L169.116 53.2942C168.153 54.1557 166.951 54.7271 165.511 55.0084L162.428 55.178C158.738 56.432 155.167 57.6592 151.716 58.8596ZM233.854 79.3255L229.129 78.312L219.517 78.8406L219.191 78.434L208.732 79.0092L208.272 79.459L204.705 79.6551L202.005 80.1675L198.334 79.581L195.818 80.1439L193.455 77.9696L192.9 67.8735L192.548 66.9833L192.837 66.7248L192.228 55.6615L190.895 50.1561L193.915 48.8379L195.869 49.0942L198.133 48.3633L198.328 48.5952L206.187 48.163C207.911 44.9554 208.822 41.3074 208.92 37.219L206.744 37.3387L197.134 40.1109L194.766 38.9676L193.881 37.1972C198.362 35.6167 203.266 34.3768 208.593 33.4774L212.825 33.2447L213.406 32.7883L224.651 32.1699L227.327 33.4174L227.394 34.6265L226.557 35.9459L225.727 36.2948L220.588 36.5774L218.779 35.646L214.063 35.9054C213.689 39.4025 212.978 42.6353 211.928 45.6036L214.423 46.8611L225.236 43.9016L230.979 43.5857L236.502 45.8894L236.875 47.1424L236.161 49.6071L237.189 68.2879L236.846 68.6706L237.118 73.6279C237.475 75.7104 237.086 77.4499 235.95 78.8464L233.854 79.3255ZM218.424 75.505L219.707 74.5854C218.237 73.5748 217.462 72.344 217.382 70.8931L212.234 69.9028L210.32 74.7985L214.83 76.309L216.136 75.8127L217.792 76.1461L218.424 75.505ZM206.675 75.7872L207.425 75.079L205.516 71.2425L206.213 68.4754L205.857 67.5248L206.133 67.0245L205.88 62.4299L206.623 56.0826L206.387 51.7903L205.618 51.0443L199.33 51.39L196.079 52.9029L196.315 57.1953L196.637 57.5414L197.318 69.9348L197.822 70.2709L198.055 74.5028L198.725 76.7702L205.153 76.7805L206.675 75.7872ZM231.822 74.3437L233.036 71.0631L231.759 47.8482C230.174 46.9651 228.602 46.6675 227.041 46.9555L221.152 49.0379L220.872 51.6607L221.897 55.9703L222.576 68.3032L222.988 70.2816L222.441 74.6777L223.713 75.7598L230.242 75.4007L231.822 74.3437ZM217.391 66.6479L218.025 61.6407L217.27 60.045L214.144 59.4286L210.226 62.0696L210.016 65.962C211.768 67.6848 213.765 68.3431 216.006 67.9368L217.391 66.6479ZM216.87 56.0649L217.093 53.5058L215.701 50.2472L212.326 49.5233C211.068 51.6541 210.34 53.8367 210.139 56.0712L211.673 57.5028L216.268 57.2501L216.87 56.0649ZM264.233 78.2007C262.695 77.4363 261.886 76.3286 261.806 74.8777L262.795 71.9127L262.253 62.0584L261.767 60.933L261.971 56.9197L261.528 56.5802L261.328 52.9529L260.946 52.6101L260.656 47.3505L259.748 44.0653L259.552 40.4985L269.647 28.9071L272.972 28.7242L274.554 29.9107L274.607 30.878C270.859 34.0351 267.541 38.0176 264.652 42.8254L267.517 43.0923L271.286 42.1574L287.246 41.2797L290.036 42.3997L290.488 45.1035L290.019 49.7985L290.405 50.2018L290.833 58.0005L290.494 58.4437L290.959 66.9074L291.525 70.5753L290.066 72.7172L289.099 72.7704L288.54 74.7415L284.345 75.6393L273.058 74.3802L267.254 74.6994L266.335 77.8425L264.233 78.2007ZM285.707 71.7441L286.414 69.1585L285.949 60.6947L285.009 59.0485L284.371 58.4772L280.26 58.7032L279.874 58.3L273.345 58.6591L271.989 58.2486L271.592 58.7555L267.3 58.9915L266.335 60.1967L266.644 65.8191L267.087 66.1585L267.32 70.3904L269.271 71.6778L275.074 71.3587L281.076 72.4233L285.126 72.2006L285.707 71.7441ZM285.193 54.6724L285.863 52.5132L285.413 50.9613L285.636 48.4023L284.671 45.1809L283.966 44.492L277.195 44.8644L276.859 45.3679L271.72 45.6505L265.553 47.0812L264.928 47.8432L265.261 53.8888L266.747 55.5655L270.919 55.3361L272.105 54.8464L272.43 55.253L276.904 55.007L277.226 55.3531L282.425 55.0672L284.565 55.374L285.193 54.6724ZM327.492 69.6281L325.229 68.176C321.873 60.801 319.249 53.1633 317.36 45.263L320.772 44.4689L322.766 46.5423L322.939 49.686C324.286 55.0693 326.456 59.983 329.45 64.4269L331.091 65.61L331.194 67.4841L330.314 69.1092L327.492 69.6281ZM355.187 62.7083L353.884 62.1735L352.908 60.9538L352.426 52.1878L352.043 51.845L351.87 48.7013L349.78 39.3567C350.568 38.2623 351.72 37.8957 353.236 38.257L354.851 40.048L355.04 43.494L356.233 47.5518L356.406 50.6955L356.725 50.9811L357.124 58.2358L357.563 60.6978L356.742 62.3196L355.187 62.7083ZM386.528 70.2624L383.926 68.1618L383.847 66.7109L384.456 64.5551L384.173 59.4164L384.519 59.0941L384.253 54.2577L384.586 53.6936L384.19 46.4994L381.907 45.7761C380.38 49.6196 378.608 53.0522 376.591 56.0737L374.855 56.4724C373.185 55.5132 372.507 54.2164 372.822 52.5821C378.066 44.2894 382.718 35.8879 386.777 27.3774L388.107 27.3042L390.394 28.088L391.172 30.107L386.812 36.835L387.052 41.1878L388.067 44.2245L388.573 53.4138L388.237 53.9173L388.539 59.4188L388.149 61.1382L388.565 62.0855L388.219 62.4077L388.438 66.3978L389.038 68.4871L388.208 69.9275L386.528 70.2624ZM402.38 65.2066L400.128 61.7528L400.525 61.2458L406.087 60.94C407.938 57.8467 408.775 54.6879 408.598 51.4636L408.315 46.3249L404.812 45.4866L395.464 48.6082L393.228 46.5482L393.172 45.5204C397.324 43.8367 402.136 42.3998 407.609 41.2094L407.81 37.1356L406.876 31.1838L408.979 30.8256L411.027 31.6832L411.091 31.7403L411.48 38.8136L414.068 40.6723L417.874 39.3109L421.864 39.0914L425.343 40.598L425.567 41.374L424.555 42.8243L419.235 43.1169L418.832 43.5029L414.6 43.7356L412.235 45.9274L412.673 53.9075L412.496 58.4045L415.884 59.3703L416.399 58.7963L422.384 58.4671L424.3 60.2415L424.354 61.2088L423.386 62.3535L414.68 62.8323L408.247 64.9446L405.5 64.6105L402.38 65.2066ZM461.253 69.4881L458.211 67.1086L458.171 66.3831L460.132 62.3338L459.912 58.3437L458.987 55.8478L457.328 55.4539C456.201 56.284 454.927 56.637 453.505 56.5131L451.928 54.2956C453.955 52.9309 456.446 51.9248 459.402 51.2771L460.106 47.5394L457.759 46.7589C452.684 49.3019 447.77 51.4721 443.018 53.2696L440.423 51.29L440.37 50.3227C446.224 47.2518 452.657 44.7757 459.669 42.8943L460.554 40.2382L458.351 39.8743C455.77 41.4715 453.117 42.4664 450.389 42.8589L447.76 41.3662L447.395 40.2342L460.482 35.6336L460.316 32.6109L457.999 32.3745L452.292 33.3553C451.063 33.0591 450.214 32.3175 449.744 31.1305L449.415 25.1454L450.566 21.8077L453.448 21.2854L455.583 21.5317L458.822 19.777L459.149 16.909L456.121 15.8628L451.341 17.1566L447.955 17.3427L445.612 15.5312L445.559 14.5639C446.726 13.7316 448.115 13.2712 449.727 13.1825L454.443 12.9232L456.576 12.0176L457.037 10.4763L456.149 7.55383L457.637 7.04753L460.545 8.10038L461.833 10.5763L464.718 11.206L468.047 9.99208L472.46 9.74937L474.481 11.2148L474.551 12.4844C472.676 13.679 470.348 14.3527 467.567 14.5057L464.397 14.1949L462.663 15.7456L462.763 17.5593C463.801 18.7958 464.995 19.195 466.346 18.7569L471.505 17.7455L473.755 18.9558L474.157 20.7529L473.997 24.4606L474.855 26.839C473.947 28.708 472.15 29.4739 469.463 29.1365L466.3 28.9467L463.937 31.1989L464.021 32.7103L465.39 34.4542L467.143 34.3578L470.062 33.4089L477.438 33.0033L478.499 33.5513L478.751 38.146L483.647 40.0597L483.955 41.2555C482.589 42.1392 480.858 42.6386 478.762 42.7539L476.988 50.1887L472.631 52.5507L467.734 52.82L464.472 54.1515L463.886 57.822L465.363 64.8355L463.567 68.5725L461.253 69.4881ZM472.559 47.9461L473.7 44.427L472.434 43.4657L468.202 43.6984L464.379 45.8491L463.702 48.9789C465.285 49.8217 466.857 50.0991 468.417 49.8111L472.559 47.9461ZM473.981 39.6211L474.355 37.5994C473.4 36.3988 472.065 36.0073 470.349 36.4251L464.75 38.249L464.402 40.7542L467.834 41.4144L473.981 39.6211ZM459.563 27.7406L460.37 25.877C459.569 24.5466 458.493 24.0803 457.14 24.4781L454.281 25.4236L453.937 27.9893L457.154 29.1464L459.563 27.7406ZM469.278 24.6595L469.218 23.5713L469.628 22.2147L466.002 21.3226L463.902 22.8328L463.528 24.8544L465.898 26.0581L469.278 24.6595ZM526.699 60.9773C522.265 61.2211 518.546 59.748 515.541 56.5579C513.836 54.2261 512.895 51.4481 512.717 48.2238C513.751 41.2946 516.663 34.7068 521.454 28.4604L520.305 28.5235C514.418 30.2622 508.453 31.7019 502.412 32.8427C501.082 32.1881 500.382 31.216 500.311 29.9263L500.752 29.1138L504.923 28.8843C512.642 26.6407 520.503 24.7733 528.506 23.2821L530.309 24.0925L531.212 26.1652C525.782 30.3447 521.7 35.5011 518.965 41.6345C517.828 43.7587 517.122 45.9805 516.845 48.3L517.034 51.746L519.118 55.4516C520.676 56.5787 522.619 56.9974 524.948 56.7076L526.382 56.3255L529.028 58.1205L529.104 59.511C528.629 60.4264 527.827 60.9152 526.699 60.9773ZM546.614 31.6852C545.685 30.9682 545.095 30.1517 544.842 29.2358L544.54 23.7344L542.191 14.1008C542.473 13.3576 543.144 13.0579 544.203 13.2018L546.083 14.3112C546.966 16.4052 547.676 18.6502 548.212 21.0463L548.698 29.8728L548.23 31.2932L546.614 31.6852ZM536.787 31.6192L535.394 30.5437L533.49 24.5846L533.29 20.9573L531.41 14.3298C531.896 13.6159 532.709 13.3286 533.849 13.4681L536.165 14.796L537.428 20.1233L537.615 23.5088L539.508 30.3781L538.782 31.5095L536.787 31.6192ZM578.876 57.077L576.028 56.0208L568.697 42.9017C569.51 42.2506 570.547 41.9914 571.808 42.1242C573.965 43.8651 575.553 46.2842 576.573 49.3813C578.582 51.3729 580.059 53.596 581.002 56.0505C580.643 56.8787 579.935 57.2209 578.876 57.077ZM21.7964 180.672L19.2119 177.782L20.6568 176.49L24.8887 176.257C32.3789 174.996 39.6466 173.363 46.6917 171.359C47.7325 171.908 48.2862 172.787 48.3527 173.996C45.7835 175.795 42.8979 176.984 39.6957 177.565L36.6125 177.734L30.2873 179.598L26.9623 179.781L22.7032 180.622L22.3843 180.336L21.7964 180.672ZM39.5284 152.47L38.5052 150.404L34.4653 149.716L31.4425 149.883L27.7215 149.481L25.3199 149.916L24.3964 149.664L19.2471 150.856L16.9616 147.89C17.5108 146.849 18.4907 146.289 19.9013 146.212L24.7982 145.943L25.9907 145.574L26.3096 145.859L31.5087 145.574C35.8031 145.742 39.9046 146.446 43.8132 147.686L44.6279 150.37C43.2545 151.861 41.5547 152.56 39.5284 152.47ZM80.1027 176.859C78.4502 176.95 76.9851 176.404 75.7073 175.221L74.9864 173.138L74.8002 169.752C74.9328 164.813 76.122 160.341 78.3677 156.337C83.3439 150.525 89.5086 147.215 96.8621 146.406C100.138 146.428 103.072 147.601 105.666 149.924C111.066 154.761 114.461 160.618 115.849 167.495L116.102 172.09L114.976 173.667L113.404 173.754C111.972 173.428 111.116 172.566 110.836 171.166C111.574 169.873 111.803 168.526 111.524 167.126C109.989 161.268 106.835 156.106 102.061 151.638L99.5163 150.565C97.5237 158.437 94.0535 165.904 89.1057 172.968C87.553 174.872 85.7813 176.102 83.7905 176.656L80.1027 176.859ZM83.5544 172.364C88.3401 166.764 91.9898 160.722 94.5033 154.237L95.3011 151.1L93.696 150.582C89.5124 152.429 85.6631 155.208 82.148 158.919C79.9537 163.122 78.8965 167.789 78.9764 172.918C79.6253 173.691 80.448 173.949 81.4445 173.692L83.5544 172.364ZM144.421 178.718L141.403 175.67L142.013 172.423L141.797 168.494L141.358 167.123L141.704 166.801L140.869 151.626L138.347 150.977L135.902 151.718L133.099 149.264L133.049 148.358L140.023 146.155L140.401 143.102L138.959 138.937C139.976 138.315 141.053 138.054 142.19 138.153C143.945 139.916 144.902 142.248 145.061 145.15L148.893 145.364L152.095 144.036L152.79 143.452L152.517 138.494L152.86 138.112L152.641 134.122L152.269 132.869C152.71 132.076 153.379 131.736 154.274 131.849L156.413 133.247L157.184 136.237L156.801 142.503C158.421 143.304 160.032 143.559 161.633 143.269L163.616 141.826L164.123 141.131L163.598 131.579C164.373 130.97 165.248 130.72 166.225 130.828L168.319 132.532L168.486 135.555L167.845 140.441L170.612 141.138L175.166 140.159L177.46 141.064L178.197 143.449C177.487 144.499 176.516 144.855 175.285 144.519L173.868 144.112L168.856 145.6L168.001 148.8L168.37 149.993L168.081 150.251L168.41 156.236L169.692 158.591L168.2 160.129L163.971 161.513L159.678 161.75L157.965 162.571L154.579 162.758C153.205 162.025 152.376 160.918 152.093 159.438L153.094 157.806L152.785 152.184L151.756 148.905L148.277 148.49L145.791 149.597L145.018 150.974L145.417 158.228L145.809 158.753L146.052 163.166L145.709 163.549L145.952 167.962L146.893 171.852L149.634 172.065L153.043 171.21L164.348 170.588L164.731 170.931L169.084 170.692L170.575 170.246L173.255 170.462L173.779 170.07L177.77 169.85L180.21 171.232L180.29 172.683L179.43 173.579L162.926 174.487L161.757 174.187L158.815 174.713L157.223 174.437C152.453 175.184 148.186 176.611 144.421 178.718ZM163.604 157.046L163.554 156.14L164.142 154.713L163.72 147.035L161.675 146.238L157.211 147.756L156.608 151.125L157.057 152.677L156.844 155.417L158.256 157.947L160.879 158.227L163.604 157.046ZM227.272 173.556L225.625 171.16L225.796 170.969L225.567 166.797L225.913 166.475L225.67 162.062L222.771 151.246L212.852 147.304L210.65 151.367L213.406 152.974L213.598 153.145L213.917 158.949L213.107 165.178L213.51 172.493L211.182 173.167L209.221 171.698L208.645 168.941L209.755 160.451L209.522 156.219L209.93 153.71L207.874 153.823L201.502 162.542L200.051 162.622L197.583 160.756L197.527 159.729L211.135 142.547L208.623 142.079L204.186 142.99L201.463 140.896L201.254 137.088L200.868 136.684L200.27 125.802L200.616 125.48L200.247 118.77L202.285 118.354L206.52 119.273L216.956 117.184L217.339 117.526L223.384 117.194L227.713 118.714L230.228 124.761L230.617 131.834C230.768 134.575 230.196 137.032 228.9 139.205L227.54 139.826L227.221 139.54L222.022 139.826L217.335 141.721L216.128 145.123C222.389 147.972 228.872 149.718 235.577 150.36L241.139 150.054L243.889 151.54L243.929 152.265L243.461 153.686L238.141 153.978L228.302 152.579L228.465 155.541L230.292 161.201L230.731 169.181L229.613 173.124L227.272 173.556ZM211.9 137.715L212.407 132.593C211.064 131.697 209.676 131.45 208.243 131.852L204.95 133.731L204.673 136.414L206.133 138.699L210.506 138.822L211.9 137.715ZM225.426 135.576L225.37 134.549L226.094 131.174C223.593 129.815 220.919 129.336 218.071 129.735L216.707 130.295L216.31 131.894L216.526 135.823L217.617 136.915L221.97 136.676L225.426 135.576ZM211.57 127.303C212.428 126.003 212.612 124.558 212.12 122.968L208.624 122.25L205.191 123.773L204.48 128.481L208.671 128.615L211.57 127.303ZM225.703 126.283L225.99 124.873L224.148 121.154L222.65 120.387L217.512 120.67C216.006 121.966 215.656 123.683 216.461 125.821C219.127 126.524 221.978 126.913 225.015 126.988L225.703 126.283ZM280.72 167.403C276.961 167.407 273.582 166.239 270.583 163.897C269.278 162.958 268.681 161.657 268.791 159.994C271.241 155.291 274.308 150.776 277.991 146.45L278.596 146.417L278.509 144.845C276.219 144.365 274.185 143.022 272.406 140.815C271.066 139.231 270.238 137.417 269.924 135.373L266.824 135.24L266.538 135.559L261.278 135.848L259.57 133.456C260.13 132.617 261.041 132.263 262.301 132.396L265.401 132.529L269.1 131.416L269.634 130.113L269.395 125.76L268.604 122.408L271.066 121.97L272.644 123.096L273.049 124.953L272.797 125.877L273.119 126.223L273.289 129.306L275.18 129.505L280.622 127.023L280.874 126.099L282.41 125.348L286.158 125.142L287.739 126.328L287.825 127.9C283.615 129.991 279.17 131.873 274.492 133.545L274.21 133.924L274.379 137.008L277.699 141.13L281.187 142.818C284.109 139.343 287.614 137.29 291.703 136.661L293.647 137.828L293.697 138.735L285.61 143.849L285.357 144.772L290.571 149.154L291.664 152.49L290.877 154.716L289.036 155.424L286.76 153.73L286.657 151.856L286.872 150.267L284.224 147.32L282.411 147.42C278.284 151.771 275.228 156.486 273.244 161.568C275.603 163.298 278.334 164.077 281.437 163.907L284.521 163.737C289.613 162.244 294.468 160.118 299.087 157.357L300.631 157.879L301.416 160.019C296.63 163.395 291.262 165.772 285.315 167.15L280.72 167.403ZM326.463 167.798L324.297 167.007L323.812 164.79L323.446 158.14L323.849 157.754L323.477 150.983L320.468 150.3L317.526 150.825C316.111 150.095 315.45 149.1 315.542 147.842L322.936 145.555L323.507 144.918L323.224 139.779L321.294 138.854L318.737 139.783C317.242 139.057 316.252 137.959 315.767 136.49C318.185 136.357 320.561 135.458 322.895 133.794L323.035 130.815L322.221 127.039L322.217 126.979L325.784 126.783C326.968 128.456 327.764 130.433 328.172 132.715L330.325 133.264L330.661 132.76L334.349 132.558L336.215 133.425L336.568 134.315C334.231 135.94 331.391 136.844 328.045 137.028L327.484 143.365L331.108 144.196C332.541 143.067 334.252 142.568 336.24 142.701C337.247 144.101 338.739 144.403 340.717 143.607C344.531 142.387 348.412 141.284 352.359 140.299L352.931 139.661L352.701 135.49L350.781 134.746L347.19 135.611L344.501 134.122L343.736 132.344L344.942 131.126C340.888 126.498 338.152 121.959 336.735 117.509C340.048 115.265 343.814 113.542 348.033 112.34C349.08 112.282 349.887 112.622 350.453 113.359L350.123 115.075L352.977 117.344L355.475 125.271L354.409 126.846L353.442 126.899C351.276 124.269 349.683 121.042 348.665 117.217L348.699 115.639L341.389 119.436L342.472 121.499L348.566 130.866L349.258 131.313L353.248 131.094L353.594 130.771L357.524 130.555L359.909 129.818L358.939 128.719L358.137 127.368C358.833 123.126 360.025 119.078 361.714 115.226L363.084 114.787L365.801 115.668L366.136 117.348C364.143 120.813 362.547 124.862 361.346 129.496L365.15 131.409L365.217 132.618L361.639 133.725L357.75 133.575C356.646 134.808 356.27 136.425 356.622 138.427C357.372 139.558 358.444 139.944 359.839 139.584L362.943 138.686L365.733 139.806L366.23 141.113C365.305 141.932 364.076 142.383 362.545 142.468L358.615 142.684L356.935 144.11L356.788 148.06L357.124 154.166C358.626 155.013 360.237 155.268 361.957 154.931L363.942 153.548L364.612 151.389L363.741 147.677L367.096 146.947L368.167 147.676L368.45 152.815L368.833 153.158L369.232 160.413L368.185 164.533L365.978 165.2L364.225 164.205L364.119 162.27L364.665 157.874L361.915 157.48L356.436 159.297L356.13 160.345L353.651 160.481L351.697 160.225L346.658 162.321L343.212 162.511L340.483 160.296L340.446 159.631L341.458 151.571L344.101 151.122L345.72 151.882L346.129 153.8L345.908 157.511L348.608 158.09L352.518 156.42L353.09 155.782L352.81 150.704L353.21 150.258L352.921 144.998L350.507 144.1C347.539 145.274 344.572 146.084 341.605 146.53L338.097 144.479C334.836 146.195 331.621 147.645 328.452 148.83L327.881 149.468L328.429 159.443L328.112 161.401L328.559 161.8L328.815 166.456L326.463 167.798ZM411.966 160.124L409.67 158.068L409.587 156.556C411.564 155.032 412.894 153.12 413.576 150.819L415.414 144.532L415.247 141.51L414.61 140.938L411.224 141.125C406.362 142.403 402.081 144.679 398.381 147.955L396.34 150.554L394.527 150.653L392.61 148.879L392.494 146.763L392.779 146.444L392.507 141.487L392.792 141.168L392.54 136.573L392.759 135.045L391.566 129.896L393.649 129.175L395.529 130.284L396.633 132.71L397.018 139.723L396.733 140.042L396.919 143.427L397.842 143.68C401.375 141.019 405.255 139.169 409.483 138.128L414.077 137.875C415.741 137.986 417.216 138.713 418.503 140.057L419.556 141.576L419.743 144.961C418.761 149.907 416.958 154.615 414.334 159.084L411.966 160.124ZM408.961 128.636L406.39 125.988C402.443 124.79 398.548 123.064 394.705 120.81L394.014 119.271C394.574 118.432 395.484 118.078 396.745 118.211C402.021 120.791 407.366 123.165 412.781 125.334L413.133 126.224L412.011 127.862L408.961 128.636ZM469.563 157.745C466.453 157.067 463.623 155.586 461.071 153.3C456.903 148.8 454.443 143.397 453.692 137.091L452.768 136.839C451.816 137.902 450.614 138.473 449.164 138.553L447.602 137.729L446.828 134.679L452.818 132.228L453.034 130.639L451.406 123.088L454.073 121.971L456.402 124.633L456.183 126.161L456.505 126.507L456.688 129.832L458.233 130.353L469.147 127.024L469.432 126.705L469.06 119.934C469.833 119.285 470.849 119.027 472.11 119.16C473.173 120.112 473.75 121.415 473.841 123.067L473.389 125.881L475.505 125.765L476.073 125.067L480.365 124.831L483.432 124.359C484.486 125.15 484.946 126.155 484.811 127.376L483.954 128.332L480.87 128.502L477.293 129.608L475.1 129.426L473.675 131.081L473.994 136.884L472.828 144.346L470.729 144.765L469.47 143.925L469.014 141.16L469.904 135.29L469.702 131.602L468.459 131.064L458.167 134.662L457.934 135.948C458.473 142.063 460.82 147.25 464.975 151.509C467.103 153.454 469.693 154.241 472.745 153.871L474.888 153.147L477.34 153.618L477.406 154.828C475.292 156.803 472.677 157.776 469.563 157.745ZM518.231 157.312L516.945 157.08C516.041 156.078 515.454 154.959 515.184 153.72C512.26 153.477 509.776 152.057 507.734 149.461L507.378 148.51C507.283 143.098 509.121 138.308 512.894 134.139C514.644 132.142 516.651 130.779 518.915 130.048L522.361 129.858C524.036 130.171 525.638 131.012 527.169 132.383C528.55 133.965 529.494 135.692 530.001 137.564L530.174 140.708C528.184 146.436 524.924 151.83 520.391 156.89L518.231 157.312ZM519.428 150.394L519.391 149.729C522.756 146.229 524.821 142.255 525.587 137.807L523.205 134.178L520.71 134.012L517.35 135.773C513.998 139.515 512.359 143.89 512.433 148.899C513.348 150.102 514.536 150.764 515.998 150.886L516.888 150.534L518.477 150.75L519.428 150.394Z" fill="white"/>
</svg>
