<svg width="115" height="27" viewBox="0 0 115 27" fill="none" xmlns="http://www.w3.org/2000/svg">
<g clip-path="url(#clip0_36_101)">
<path d="M6.02344 26.0859L4.65625 24.9141C3.90104 22.3359 3.32812 19.6927 2.9375 16.9844V13.8984L2.54688 11.9453V10.0312C2.15625 6.80209 1.57031 3.70313 0.789062 0.734382C1.4401 0.369799 2.15625 0.252611 2.9375 0.382819C4.08333 2.96095 4.78646 5.72136 5.04688 8.66407V10.8125L5.24219 11.0078V13.5078L5.4375 13.7031V16.9844L5.63281 18.3516H6.21875C7.49479 12.2839 9.03125 6.35939 10.8281 0.578132L11.6094 0.382819L13.3672 1.12501L13.5625 3.27345C10.9844 10.6172 8.86198 18.1562 7.19531 25.8906L6.02344 26.0859ZM26.6094 26.1641L25.4375 24.7969V16.5547L25.6328 16.3594V11.6328L26.2188 10.8516H27.3906L28.3672 11.4375L28.7578 12.8047L28.3672 13.8203V16.1641L28.1719 16.75L28.3672 17.5312L28.1719 17.7266V21.4375L27.9766 23.4297L28.1719 23.625V25.7734C27.7812 26.1641 27.2604 26.2943 26.6094 26.1641ZM27.9766 6.16407C27.0651 6.03386 26.349 5.57813 25.8281 4.79689L25.0469 2.41407L26.4141 1.82813L27.9766 2.8047L28.3672 4.40626L28.9531 4.60157L29.1484 5.18751C29.0182 5.83855 28.6276 6.16407 27.9766 6.16407ZM46.0234 26.125C44.4349 25.7344 43.0547 24.8099 41.8828 23.3516L41.1016 21.9844L41.4922 21.0078L42.8594 20.8125C43.5104 22.1146 44.4349 23.1042 45.6328 23.7812H46.8047C47.9766 23.3646 48.9531 22.6354 49.7344 21.5938V21.0078C47 18.7943 44.7734 16.3203 43.0547 13.5859L42.8594 11.3984C43.5104 10.0964 44.5 9.25001 45.8281 8.85939L49.5391 8.27345C50.9714 8.40366 52.1432 8.98959 53.0547 10.0312L53.25 11.3984L51.8828 11.7891L51.4922 11.0078L49.3438 10.6172L46.2188 11.9844L45.8281 13.3516L47.3906 15.9297L50.9062 18.8594C51.8177 19.901 52.3385 21.0729 52.4688 22.375L51.1016 24.3672C49.6693 25.6693 47.9766 26.2552 46.0234 26.125ZM66.6094 26.1641L65.4375 24.7969V16.5547L65.6328 16.3594V11.6328L66.2188 10.8516H67.3906L68.3672 11.4375L68.7578 12.8047L68.3672 13.8203V16.1641L68.1719 16.75L68.3672 17.5312L68.1719 17.7266V21.4375L67.9766 23.4297L68.1719 23.625V25.7734C67.7812 26.1641 67.2604 26.2943 66.6094 26.1641ZM67.9766 6.16407C67.0651 6.03386 66.349 5.57813 65.8281 4.79689L65.0469 2.41407L66.4141 1.82813L67.9766 2.8047L68.3672 4.40626L68.9531 4.60157L69.1484 5.18751C69.0182 5.83855 68.6276 6.16407 67.9766 6.16407ZM85.6719 26.3203C84.474 26.1641 83.4193 25.6953 82.5078 24.9141L81.1406 22.5703V17.8438C81.7917 14.9531 83.1719 12.3229 85.2812 9.95313C86.1927 9.4323 87.2344 9.17189 88.4062 9.17189L90.3984 10.3438C92.0911 12.7135 93.1458 15.3438 93.5625 18.2344C93.1458 20.7344 91.8958 22.8307 89.8125 24.5234C88.6146 25.5651 87.2344 26.1641 85.6719 26.3203ZM87.2344 23.1562C88.8229 22.2188 89.9427 20.9036 90.5938 19.2109L90.7891 18.625V16.2422L89.0312 11.9062H87.625L85.6719 13.8984C85.0208 15.0703 84.4219 16.3203 83.875 17.6484V19.9922L83.6797 21.3594L84.5 23.5469L85.4766 23.9375L87.2344 23.1562ZM101.609 25.7344L100.438 24.7578L100.242 21.5547L100.438 20.9688L100.242 20.7734V16.2422L99.4219 10.8906C100.099 10.2135 100.893 10.0052 101.805 10.2656C102.195 11.0729 102.469 11.9323 102.625 12.8438V15.0312L102.82 15.8125H103.602L104.578 14.4453C105.646 13.5078 106.909 12.9089 108.367 12.6484L110.32 13.4688C111.388 16.4896 112.508 19.4583 113.68 22.375L114.695 23.3516V24.1328H112.508L109.93 21.5547C109.539 19.4453 109.083 17.401 108.562 15.4219L107.742 15.2266C106.023 16.4245 104.773 17.9479 103.992 19.7969L103.406 22.5703V25.1484C103.016 25.7995 102.417 25.9948 101.609 25.7344Z" fill="#FF8A00"/>
</g>
<defs>
<clipPath id="clip0_36_101">
<rect width="115" height="27" fill="white"/>
</clipPath>
</defs>
</svg>
